<?xml version="1.0" encoding="UTF-8" standalone="no"?>
<!DOCTYPE svg PUBLIC "-//W3C//DTD SVG 1.1//EN" "http://www.w3.org/Graphics/SVG/1.1/DTD/svg11.dtd">
<svg width="100%" height="100%" viewBox="0 0 673 93" version="1.1" xmlns="http://www.w3.org/2000/svg" xmlns:xlink="http://www.w3.org/1999/xlink" xml:space="preserve" xmlns:serif="http://www.serif.com/" style="fill-rule:evenodd;clip-rule:evenodd;stroke-linejoin:round;stroke-miterlimit:2;">
    <g transform="matrix(1,0,0,1,-44.6121,-38.5085)">
        <g transform="matrix(0.789385,0,0,0.789385,-205.14,-199.467)">
            <g transform="matrix(0.6439,0,0,0.6439,-32.2451,-186.059)">
                <path d="M566.923,938.418C559.016,938.618 551.486,935.043 546.643,928.79C541.801,922.536 540.224,914.351 542.397,906.746C554.306,865.064 574.253,795.247 581.308,770.558C582.827,765.241 587.686,761.575 593.216,761.575L701.363,761.575C706.951,761.575 711.861,765.279 713.396,770.652C720.475,795.426 740.39,865.127 752.283,906.755C754.456,914.359 752.88,922.543 748.039,928.796C743.197,935.05 735.669,938.626 727.763,938.427C717.583,938.172 706.465,937.893 696.475,937.642C688.934,937.453 681.887,933.849 677.319,927.845C672.752,921.841 671.158,914.088 672.988,906.77C675.602,896.316 677.891,887.157 677.891,887.157C667.632,873.348 669.043,854.106 681.207,841.942C683.979,839.171 686.819,836.331 689.591,833.559C693.145,830.005 694.208,824.66 692.285,820.017C690.361,815.374 685.83,812.346 680.805,812.346L672.457,812.346C665.595,812.346 660.031,817.91 660.031,824.772L660.031,850.692C660.031,857.555 654.468,863.118 647.606,863.118L647.071,863.118C640.209,863.118 634.646,857.555 634.646,850.692L634.646,824.772C634.646,817.91 629.082,812.346 622.22,812.346L613.873,812.346C608.847,812.346 604.316,815.374 602.393,820.017C600.469,824.66 601.532,830.005 605.086,833.559C607.711,836.184 610.397,838.87 613.028,841.501C625.363,853.835 626.535,873.441 615.758,887.157C615.758,887.157 618.048,896.32 620.663,906.778C622.492,914.095 620.9,921.847 616.334,927.851C611.768,933.854 604.722,937.459 597.182,937.65C587.505,937.896 576.784,938.168 566.923,938.418Z" style="fill:rgb(115,0,201);"/>
            </g>
            <g transform="matrix(0.977461,0,0,0.977461,454.178,390.472)">
                <text x="0px" y="0px" style="font-family:'CourierPrime-Bold', 'Courier Prime', monospace;font-weight:700;font-size:154.242px;">onotreme</text>
            </g>
        </g>
    </g>
</svg>
