<?xml version="1.0" encoding="UTF-8" standalone="no"?>
<!DOCTYPE svg PUBLIC "-//W3C//DTD SVG 1.1//EN" "http://www.w3.org/Graphics/SVG/1.1/DTD/svg11.dtd">
<svg width="100%" height="100%" viewBox="0 0 235 196" version="1.1" xmlns="http://www.w3.org/2000/svg" xmlns:xlink="http://www.w3.org/1999/xlink" xml:space="preserve" xmlns:serif="http://www.serif.com/" style="fill-rule:evenodd;clip-rule:evenodd;stroke-linecap:round;stroke-linejoin:round;stroke-miterlimit:10;">
    <g transform="matrix(1,0,0,1,-25.7676,-442.138)">
        <g id="Artboard1" transform="matrix(0.216346,0,0,0.216346,-448.793,356.891)">
            <g>
                <g id="Layer1" transform="matrix(0.580247,0,0,1.27717,738.265,-251.525)">
                    <g>
                        <g>
                            <g>
                                <rect x="2508" y="505.453" width="1872" height="353.392" style="fill:rgb(255,39,0);"/>
                                <rect x="2508" y="858.845" width="1872" height="353.392"/>
                            </g>
                        </g>
                    </g>
                </g>
                <g id="Layer2">
                    <g>
                        <g>
                            <g>
                                <path d="M2741.51,960.111C2740.5,959.891 2751.35,951.37 2756.46,923.818C2758.45,913.063 2754.75,885.835 2756.35,875.427C2758.43,861.949 2759.87,849.824 2759.87,841.803C2759.87,826.512 2764.97,806.242 2764.22,790.743C2763,765.495 2771.74,744.803 2776.38,745.363C2776.82,745.416 2777.22,745.558 2777.62,745.646C2778.06,745.74 2778.47,745.828 2778.87,745.911C2787.8,747.759 2790.62,747.128 2796.31,745.911C2802.12,744.665 2807.57,739.81 2813.74,738.439C2821.21,736.778 2835.74,737.608 2841.14,735.948C2844,735.068 2846.12,730.551 2846.12,728.476C2846.12,726.4 2841.14,723.494 2841.14,723.494C2841.14,723.494 2850.1,720.05 2851.1,716.022C2852.35,711.041 2852.84,699.824 2848.61,693.606C2844.05,686.886 2827.26,686.054 2823.7,675.702C2820.15,665.35 2816.2,649.797 2801.83,645.933C2787.45,642.069 2778.51,629.204 2776.97,627.13C2775.44,625.058 2758.85,622.623 2734.04,623.866C2709.23,625.11 2694.59,645.839 2689.21,653.755C2683.82,661.67 2665.93,728.476 2665.93,728.476C2665.93,728.476 2598.44,889.863 2629.43,1012.42C2629.43,1012.42 2673.24,1096.65 2766.42,1047.29C2766.42,1047.29 2778.53,1042.6 2783.85,1049.78C2789.18,1056.95 2796.31,1067.21 2796.31,1067.21L2826.52,1059.87L2846.35,1040.05C2846.35,1040.05 2851.01,1023.09 2826.52,1030.14C2815.45,1033.33 2796.79,1020.23 2796.79,1020.23C2796.79,1020.23 2787.16,973.141 2745.25,961.084C2744.03,960.734 2742.79,960.387 2741.51,960.111Z" style="fill:white;"/>
                                <path d="M2580,864.394L2624.37,837.31L2645.45,834L2682,838.016L2724,840.035L2754,845.553L2796,864.394"/>
                                <path d="M2834.91,691.115C2834.91,691.115 2826.06,699.566 2831.18,706.059C2836.29,712.553 2841.46,708.374 2846.12,708.55C2850.78,708.727 2850.27,705.725 2851.1,706.059C2851.93,706.394 2854.13,693.757 2853.59,693.606C2853.06,693.455 2840.04,688.085 2838.65,688.624C2837.26,689.164 2834.91,691.115 2834.91,691.115Z"/>
                                <path d="M2776.38,666.208C2776.38,666.208 2788.78,684.462 2798.8,683.643C2808.82,682.824 2808.42,678.235 2808.76,673.68C2809.1,669.126 2805.2,666.678 2801.29,663.718C2797.38,660.757 2786.69,661.101 2783.85,661.227C2781.02,661.352 2776.38,666.208 2776.38,666.208Z"/>
                            </g>
                        </g>
                        <rect x="2544.85" y="861.923" width="310.302" height="242.077" style="fill-opacity:0.36;"/>
                        <path d="M2757.15,622.317C2757.15,622.317 2751.13,564.248 2700.97,564L2684.22,567.069C2684.22,567.069 2726.61,567.435 2726.39,623.827" style="stroke:black;stroke-width:6.93px;"/>
                        <g>
                            <g>
                                <path d="M2751.47,718.513C2752.85,739.786 2770.3,744.135 2778.87,745.911C2787.8,747.759 2790.62,747.128 2796.31,745.911C2802.12,744.665 2807.57,739.81 2813.74,738.439C2821.21,736.778 2835.74,737.608 2841.14,735.948C2844,735.068 2846.12,730.551 2846.12,728.476C2846.12,726.4 2841.14,723.494 2841.14,723.494C2841.14,723.494 2850.1,720.05 2851.1,716.022C2852.35,711.041 2852.84,699.824 2848.61,693.606C2844.05,686.886 2827.26,686.054 2823.7,675.702C2820.15,665.35 2811.64,657.122 2801.83,645.933C2790.87,633.435 2781.97,632.561 2776.97,628.782C2773.01,625.784 2758.85,622.623 2734.04,623.866C2709.23,625.11 2694.59,645.839 2689.21,653.755C2683.82,661.67 2665.93,728.476 2665.93,728.476C2665.93,728.476 2598.44,889.863 2629.43,1012.42C2629.43,1012.42 2673.24,1096.65 2766.42,1047.29C2766.42,1047.29 2778.53,1042.6 2783.85,1049.78C2789.18,1056.95 2796.31,1067.21 2796.31,1067.21L2836.16,1054.76L2848,1040.05L2846.35,1025.18C2846.35,1025.18 2834.98,1020.64 2821.57,1030.14C2812.17,1036.8 2796.79,1015.27 2796.79,1015.27C2796.79,1015.27 2784.56,951.923 2719.1,959.225" style="fill:none;stroke:black;stroke-width:6.93px;"/>
                                <path d="M2706.84,814.351C2706.84,814.351 2722.68,787.684 2750.11,797.792C2777.54,807.899 2802.11,805.035 2807.34,805.713C2812.56,806.392 2836.16,809.113 2840.97,814.922C2845.77,820.731 2859.25,835.694 2862.79,838.973C2866.33,842.252 2874.29,850.133 2875.23,850.126C2876.17,850.12 2875.22,855.599 2870.2,859.078C2865.17,862.556 2855.14,856.946 2850.32,856.218C2845.5,855.49 2839.42,853.641 2828.7,850.298C2817.98,846.955 2815.82,845.186 2812.54,843.292C2809.26,841.397 2768.87,851.999 2760.98,852.415C2753.08,852.831 2725.43,852.112 2714.68,842.32C2703.92,832.528 2705.89,816.172 2706.84,814.351Z" style="fill:white;stroke:black;stroke-width:11.56px;"/>
                                <path d="M2762,794C2762,794 2759.17,764.958 2776.38,745.911" style="fill:none;stroke:black;stroke-width:6.93px;"/>
                                <path d="M2760,852C2760,852 2753.02,891.351 2756.57,906.273C2760.13,921.194 2746.74,954.334 2744,957.62" style="fill:none;stroke:black;stroke-width:4.62px;"/>
                                <path d="M2752.72,657.491C2752.72,657.491 2751.99,657.914 2752.72,664.963C2753.45,672.012 2749.21,720.765 2744,728.476C2738.8,736.187 2724.78,748.364 2711.62,743.42C2698.46,738.476 2700.43,725.504 2704.15,721.004C2707.87,716.503 2717.58,679.188 2719.1,672.435C2720.62,665.682 2718.82,659.379 2719.1,657.491" style="fill:none;stroke:black;stroke-width:6.93px;"/>
                                <path d="M2834.91,691.115C2834.91,691.115 2826.06,699.566 2831.18,706.059C2836.29,712.553 2841.46,708.374 2846.12,708.55C2850.78,708.727 2850.27,705.725 2851.1,706.059C2851.93,706.394 2854.13,693.757 2853.59,693.606C2853.06,693.455 2840.04,688.085 2838.65,688.624C2837.26,689.164 2834.91,691.115 2834.91,691.115Z" style="fill:none;"/>
                                <path d="M2776.38,666.208C2776.38,666.208 2788.78,684.462 2798.8,683.643C2808.82,682.824 2808.42,678.235 2808.76,673.68C2809.1,669.126 2805.2,666.678 2801.29,663.718C2797.38,660.757 2786.69,661.101 2783.85,661.227C2781.02,661.352 2776.38,666.208 2776.38,666.208Z" style="fill:none;stroke:black;stroke-width:0.69px;"/>
                            </g>
                        </g>
                    </g>
                </g>
            </g>
        </g>
    </g>
</svg>
