<?xml version="1.0" encoding="UTF-8" standalone="no"?><!DOCTYPE svg PUBLIC "-//W3C//DTD SVG 1.1//EN" "http://www.w3.org/Graphics/SVG/1.1/DTD/svg11.dtd"><svg width="4975px" height="3475px" version="1.1" xmlns="http://www.w3.org/2000/svg" xmlns:xlink="http://www.w3.org/1999/xlink" xml:space="preserve" xmlns:serif="http://www.serif.com/" style="fill-rule:evenodd;clip-rule:evenodd;stroke-linejoin:round;stroke-miterlimit:2;"><path d="M0,3475l0,-3254.38l340.212,6.491c24.105,0.46 47.701,7.01 68.593,19.041l56.166,32.343c27.112,15.613 58.598,21.898 89.627,17.89l215.783,-27.871c10.226,-1.321 20.565,-1.531 30.836,-0.627l370.397,32.596c10.948,0.963 21.97,0.66 32.848,-0.902l164.963,-23.695c6.225,-0.894 12.385,-2.198 18.438,-3.904l148.891,-41.95c5.25,-1.479 10.58,-2.656 15.964,-3.526l289.052,-46.699c20.759,-3.354 40.523,-11.248 57.881,-23.119l60.98,-41.703c11.157,-7.63 23.457,-13.434 36.44,-17.194l229.964,-66.613c3.253,-0.943 6.473,-2 9.651,-3.172l52.057,-19.182c59.073,-21.768 125.432,-2.317 163.406,47.897l22.346,29.549c8.621,11.4 18.904,21.443 30.505,29.793l38.512,27.718c14.448,10.398 31.452,16.67 49.192,18.145l196.725,16.353c21.719,1.806 43.564,-1.38 63.863,-9.314l142.499,-55.693c16.579,-6.479 34.223,-9.804 52.023,-9.804l142.018,-0c15.38,-0 30.659,2.482 45.247,7.351l148.487,49.561c8.662,2.891 17.581,4.946 26.635,6.135l110.659,14.535c3.374,0.443 6.729,1.017 10.059,1.721l198.526,41.953c9.716,2.053 19.619,3.088 29.549,3.088l1216.01,-0l0,3247.19l-4975,0Z"/></svg>